<svg width="16" height="14" viewBox="0 0 16 14" fill="none" xmlns="http://www.w3.org/2000/svg">
<path d="M14.2417 5.46894L14.6838 5.22483L14.4353 4.78522L13.2165 2.62897L12.966 2.18581L12.5274 2.4442L9.66578 4.13015L9.68749 1.00347L9.69098 0.5H9.1875H6.8125H6.30902L6.31251 1.00347L6.33419 4.12474L3.50527 2.44507L3.07083 2.18712L2.81743 2.62423L1.56743 4.78048L1.31059 5.22354L1.75966 5.4697L4.55143 7L1.75966 8.5303L1.30772 8.77803L1.56903 9.22226L2.81903 11.3473L3.07211 11.7775L3.50277 11.5251L6.3344 9.86599L6.31251 12.9965L6.30899 13.5H6.8125H9.1875H9.69101L9.68749 12.9965L9.66556 9.86067L12.5299 11.526L12.9648 11.7788L13.215 11.3425L14.4337 9.21751L14.6865 8.77671L14.2417 8.53106L11.4693 7L14.2417 5.46894Z" stroke="black"/>
</svg>
