<svg width="8" height="12" viewBox="0 0 8 12" fill="none" xmlns="http://www.w3.org/2000/svg">
<path d="M1.25231 0.604765C1.0269 0.845861 1.0269 1.23023 1.25231 1.47133C1.25231 1.47133 1.25231 1.47133 1.25231 1.47133L5.28963 5.78972L5.469 6.02832L5.30361 6.19562L5.30354 6.19556L5.29878 6.20065L1.25231 10.5288C1.0269 10.7699 1.0269 11.1543 1.2523 11.3954L1.43493 11.2247L1.25231 11.3954C1.48668 11.6461 1.87409 11.6461 2.10847 11.3954L1.92772 11.2264L2.10847 11.3954L6.74753 6.43336C6.97294 6.19227 6.97294 5.8079 6.74753 5.5668L2.10846 0.604766C2.10846 0.604766 2.10846 0.604766 2.10846 0.604766C1.87409 0.354075 1.48668 0.354075 1.25231 0.604765ZM1.25231 0.604765L1.43493 0.775499L1.25231 0.604765Z" fill="#FFE459" stroke="#FFE459" stroke-width="0.5"/>
</svg>
