<?xml version="1.0" encoding="UTF-8"?>
<svg width="24px" height="24px" viewBox="0 0 24 24" version="1.1" xmlns="http://www.w3.org/2000/svg" xmlns:xlink="http://www.w3.org/1999/xlink">
    <title>Combined Shape 2</title>
    <g id="Page-1" stroke="none" stroke-width="1" fill="none" fill-rule="evenodd">
        <g id="menu_open" transform="translate(-32.000000, -32.000000)" fill="#000000">
            <path d="M33.9459459,32 L54.0540541,32 C55.1287703,32 56,32.8712297 56,33.9459459 C56,35.0206622 55.1287703,35.8918919 54.0540541,35.8918919 L33.9459459,35.8918919 C32.8712297,35.8918919 32,35.0206622 32,33.9459459 C32,32.8712297 32.8712297,32 33.9459459,32 Z M33.9459459,42.0540541 L54.0540541,42.0540541 C55.1287703,42.0540541 56,42.9252837 56,44 C56,45.0747163 55.1287703,45.9459459 54.0540541,45.9459459 L33.9459459,45.9459459 C32.8712297,45.9459459 32,45.0747163 32,44 C32,42.9252837 32.8712297,42.0540541 33.9459459,42.0540541 Z M33.9459459,52.1081081 L54.0540541,52.1081081 C55.1287703,52.1081081 56,52.9793378 56,54.0540541 C56,55.1287703 55.1287703,56 54.0540541,56 L33.9459459,56 C32.8712297,56 32,55.1287703 32,54.0540541 C32,52.9793378 32.8712297,52.1081081 33.9459459,52.1081081 Z" id="Combined-Shape"></path>
        </g>
    </g>
</svg>