<?xml version="1.0" encoding="UTF-8"?>
<svg width="25px" height="25px" viewBox="0 0 25 25" version="1.1" xmlns="http://www.w3.org/2000/svg" xmlns:xlink="http://www.w3.org/1999/xlink">
    <title>Combined Shape</title>
    <g id="Page-1" stroke="none" stroke-width="1" fill="none" fill-rule="evenodd">
        <g id="menu_close" transform="translate(-31.000000, -31.000000)" fill="#000000">
            <path d="M35.0864532,32.3428269 L43.7746033,41.0316033 L52.4627533,32.3428269 C53.1805095,31.6250707 54.3207507,31.5872941 55.082979,32.229497 L55.2063796,32.3428269 C55.9640111,33.1004584 55.9640111,34.3288217 55.2063796,35.0864532 L46.5176033,43.7746033 L55.2063796,52.4627533 C55.9640111,53.2203848 55.9640111,54.4487481 55.2063796,55.2063796 C54.4487481,55.9640111 53.2203848,55.9640111 52.4627533,55.2063796 L43.7746033,46.5176033 L35.0864532,55.2063796 C34.3686971,55.9241358 33.2284558,55.9619124 32.4662275,55.3197096 L32.3428269,55.2063796 C31.5851954,54.4487481 31.5851954,53.2203848 32.3428269,52.4627533 L41.0316033,43.7746033 L32.3428269,35.0864532 C31.5851954,34.3288217 31.5851954,33.1004584 32.3428269,32.3428269 C33.1004584,31.5851954 34.3288217,31.5851954 35.0864532,32.3428269 Z" id="Combined-Shape"></path>
        </g>
    </g>
</svg>