<svg width="32" height="32" viewBox="0 0 32 32" fill="none" xmlns="http://www.w3.org/2000/svg">
<g clip-path="url(#clip0_15_3887)">
<path d="M26.6696 11.7245C28.433 9.96113 28.433 7.09142 26.6696 5.32801L26.6423 5.30025C24.8764 3.56209 22.0258 3.57036 20.2707 5.32511L15.6008 9.99503C14.8185 10.7773 13.5502 10.7773 12.768 9.99503C11.9857 9.21277 11.9857 7.9445 12.768 7.16308L17.4379 2.49316C20.763 -0.831478 26.1741 -0.83063 29.499 2.49316L29.5591 2.55448C31.1336 4.15878 32 6.27646 32 8.52746C32 10.8055 31.1125 12.9472 29.5015 14.558L24.8316 19.228C24.4401 19.6195 23.9279 19.8147 23.4154 19.8147C22.9028 19.8147 22.3903 19.6191 21.9991 19.228C21.2169 18.4457 21.2169 17.1774 21.9991 16.396L26.6696 11.7245Z" fill="#0085FF"/>
<path d="M2.49425 17.4363L7.16417 12.7664C7.94644 11.9841 9.21471 11.9841 9.99697 12.7664C10.7792 13.5486 10.7792 14.8169 9.99697 15.5983L5.32705 20.2683C3.56364 22.0317 3.56364 24.9014 5.32705 26.6648L5.34486 26.6826C7.11039 28.4306 9.96801 28.4249 11.726 26.6673L16.3959 21.9973C17.1782 21.2151 18.4465 21.2151 19.2287 21.9973C20.011 22.7796 20.011 24.0479 19.2287 24.8293L14.5588 29.4992C12.8961 31.1611 10.7121 31.9927 8.52823 31.9927C6.34425 31.9927 4.15985 31.1611 2.49764 29.4992L2.46656 29.4681C-0.831564 26.1423 -0.822018 20.7522 2.49432 17.4367L2.49425 17.4363Z" fill="#0085FF"/>
<path d="M22.4343 9.73123C23.2166 10.5135 23.2166 11.7818 22.4343 12.5632L12.5201 22.4774C12.1285 22.8689 11.6164 23.0641 11.1038 23.0641C10.5913 23.0641 10.0788 22.8685 9.6876 22.4774C8.90534 21.6951 8.90534 20.4268 9.6876 19.6454L19.6022 9.73123C20.3837 8.94897 21.6519 8.94897 22.4342 9.73123H22.4343Z" fill="#0085FF"/>
</g>
<defs>
<clipPath id="clip0_15_3887">
<rect width="32" height="31.9928" fill="white" transform="matrix(-1 0 0 1 32 0)"/>
</clipPath>
</defs>
</svg>
