<svg width="36" height="30" viewBox="0 0 36 30" fill="none" xmlns="http://www.w3.org/2000/svg">
<path fill-rule="evenodd" clip-rule="evenodd" d="M36 3.46297C34.6765 4.05093 33.2522 4.4469 31.7583 4.62569C33.2834 3.71135 34.4545 2.26425 35.0053 0.53996C33.5798 1.3871 31.9971 2.00027 30.316 2.33264C28.9685 0.89754 27.0474 0 24.9247 0C20.8462 0 17.5392 3.30698 17.5392 7.38551C17.5392 7.96387 17.6052 8.52783 17.7312 9.06899C11.5924 8.76181 6.15079 5.82081 2.50783 1.35231C1.87188 2.44304 1.5083 3.71136 1.5083 5.06487C1.5083 7.6267 2.81021 9.88735 4.79368 11.2121C3.58176 11.1737 2.44423 10.8413 1.4471 10.2881V10.3805C1.4471 13.9599 3.99453 16.9441 7.37111 17.6244C6.75195 17.7924 6.09919 17.8836 5.42604 17.8836C4.94967 17.8836 4.4865 17.8368 4.03533 17.7504C4.97487 20.6842 7.70349 22.8201 10.9349 22.8801C8.40784 24.86 5.22325 26.0419 1.76268 26.0419C1.16512 26.0419 0.577162 26.0071 0 25.9375C3.26858 28.0325 7.15032 29.2565 11.3212 29.2565C24.9055 29.2565 32.3342 18.0024 32.3342 8.24344C32.3342 7.92307 32.3282 7.6039 32.3126 7.28832C33.7574 6.24439 35.0101 4.94367 36 3.46297Z" fill="#0085FF"/>
</svg>
