<svg width="17" height="17" viewBox="0 0 17 17" fill="none" xmlns="http://www.w3.org/2000/svg">
<path d="M13.8193 0H5.67912C4.44859 0 3.45474 0.993853 3.45474 2.22438V3.50211H2.22438C0.993853 3.50211 0 4.49596 0 5.72649V13.8666C0 15.0971 0.993853 16.091 2.22438 16.091H10.3645C11.595 16.091 12.5889 15.0971 12.5889 13.8666V12.5889H13.8666C15.0971 12.5889 16.091 11.595 16.091 10.3645V2.22438C16.0436 0.994022 15.0498 0.000169252 13.8193 0.000169252V0ZM11.4056 13.8666C11.4056 14.4346 10.9323 14.9078 10.3643 14.9078L2.22421 14.9077C1.65625 14.9077 1.18299 14.4345 1.18299 13.8665V5.679C1.18299 5.11104 1.65621 4.63777 2.22421 4.63777H3.45474V10.3643C3.45474 11.5948 4.44859 12.5886 5.67912 12.5886H11.4056L11.4056 13.8666ZM14.8605 10.3643C14.8605 10.9323 14.3872 11.4056 13.8193 11.4056H5.67912C5.11116 11.4056 4.6379 10.9323 4.6379 10.3643V2.22421C4.6379 1.65625 5.11112 1.18299 5.67912 1.18299H13.8193C14.3872 1.18299 14.8605 1.65621 14.8605 2.22421V10.3643Z" fill="#FFE459"/>
</svg>
