<svg width="32" height="32" viewBox="0 0 32 32" fill="none" xmlns="http://www.w3.org/2000/svg">
<g clip-path="url(#clip0_15_3924)">
<path fill-rule="evenodd" clip-rule="evenodd" d="M2.76776 23.2997L0.613281 31.1509L8.66321 29.044C10.8813 30.2511 13.3783 30.8874 15.9196 30.8885H15.9262C24.2954 30.8885 31.108 24.0907 31.1118 15.7371C31.1132 11.6885 29.5356 7.8818 26.6682 5.01789C23.8009 2.15397 19.9883 0.576279 15.9264 0.574219C7.55595 0.574219 0.744337 7.37073 0.740829 15.725C0.737613 18.3838 1.43675 20.9965 2.76776 23.2997ZM3.30491 15.7262C3.30739 8.78286 8.96921 3.13393 15.9313 3.13393C17.5894 3.13002 19.2318 3.4544 20.7635 4.08831C22.2952 4.72223 23.6856 5.65307 24.8544 6.82696C26.0297 7.99447 26.9613 9.38307 27.5953 10.9124C28.2293 12.4417 28.553 14.0813 28.5477 15.7363C28.5451 22.6801 22.8832 28.3297 15.9265 28.3297H15.9218C13.6565 28.3284 11.4351 27.7216 9.49777 26.574L9.0365 26.3013L4.25946 27.5514L5.53472 22.9047L5.23443 22.4282C3.97044 20.4207 3.30149 18.0972 3.30491 15.7262Z" fill="white"/>
<path fill-rule="evenodd" clip-rule="evenodd" d="M12.731 10.1163C12.4523 9.54325 12.1591 9.53164 11.8944 9.52172L11.1817 9.51367C10.9337 9.51367 10.5309 9.59978 10.1903 9.94424C9.84974 10.2887 8.88892 11.1212 8.88892 12.8144C8.88892 14.5077 10.2212 16.1438 10.4069 16.3737C10.5926 16.6036 12.9789 20.1891 16.7581 21.5686C19.8987 22.715 20.5377 22.487 21.2197 22.4297C21.9016 22.3724 23.4194 21.5972 23.729 20.7935C24.0386 19.9899 24.0388 19.3013 23.946 19.1574C23.8532 19.0134 23.6053 18.9279 23.2331 18.7557C22.861 18.5834 21.0334 17.7509 20.6926 17.636C20.3519 17.5211 20.1041 17.464 19.856 17.8084C19.6078 18.1529 18.8962 18.9277 18.6792 19.1574C18.4622 19.3871 18.2456 19.4159 17.8735 19.2439C17.5014 19.0718 16.3041 18.7083 14.8836 17.5358C13.7784 16.6236 13.0323 15.497 12.8151 15.1528C12.5979 14.8085 12.7921 14.622 12.9785 14.4506C13.1454 14.2963 13.3502 14.0486 13.5365 13.8478C13.7228 13.6469 13.784 13.5033 13.9078 13.274C14.0316 13.0447 13.9699 12.8432 13.8769 12.6712C13.7838 12.4992 13.0615 10.7969 12.731 10.1163Z" fill="white"/>
</g>
<defs>
<clipPath id="clip0_15_3924">
<rect width="32" height="32" fill="white"/>
</clipPath>
</defs>
</svg>
