<?xml version="1.0" standalone="no"?>
<!DOCTYPE svg PUBLIC "-//W3C//DTD SVG 20010904//EN"
 "http://www.w3.org/TR/2001/REC-SVG-20010904/DTD/svg10.dtd">
<svg version="1.0" xmlns="http://www.w3.org/2000/svg"
 width="1000.000000pt" height="1000.000000pt" viewBox="0 0 1000.000000 1000.000000"
 preserveAspectRatio="xMidYMid meet">
<metadata>
Created by potrace 1.14, written by Peter Selinger 2001-2017
</metadata>
<g transform="translate(0.000000,1000.000000) scale(0.100000,-0.100000)"
fill="#000000" stroke="none">
<path d="M7238 8175 c-1 -2 -39 -6 -83 -10 -44 -3 -91 -8 -105 -10 -14 -2 -41
-7 -60 -10 -19 -3 -46 -7 -60 -10 -14 -2 -41 -6 -60 -9 -345 -50 -868 -226
-1560 -524 -270 -116 -635 -275 -685 -297 -37 -17 -58 -25 -315 -130 -113 -45
-252 -99 -310 -120 -58 -20 -114 -41 -125 -45 -58 -25 -425 -133 -485 -144
-14 -2 -32 -7 -40 -10 -8 -3 -26 -7 -40 -10 -14 -2 -56 -11 -95 -20 -77 -16
-246 -42 -340 -51 -33 -3 -80 -8 -105 -11 -65 -7 -302 -6 -390 1 -64 5 -144
15 -250 30 -107 15 -294 67 -470 130 -158 56 -499 249 -656 371 -28 21 -68 52
-90 69 -21 16 -55 45 -74 62 -19 18 -38 33 -42 33 -5 0 -8 -1107 -8 -2459 l0
-2460 68 -56 c92 -78 93 -78 175 -138 164 -120 336 -221 512 -300 136 -60 374
-141 470 -158 272 -49 322 -54 565 -53 183 0 301 6 371 19 9 2 40 6 70 10 243
29 700 155 1064 293 168 64 617 250 800 332 28 12 73 32 100 45 28 12 185 79
350 149 165 70 309 132 320 137 133 59 561 212 736 263 95 28 282 76 319 82
14 3 33 7 42 10 18 5 39 10 89 18 19 3 43 7 54 10 11 2 40 7 65 10 25 3 54 8
66 10 69 14 197 20 399 21 233 0 306 -5 450 -32 44 -8 94 -17 110 -20 61 -10
264 -73 356 -108 155 -61 302 -137 514 -268 37 -23 207 -150 278 -208 39 -32
73 -56 76 -54 3 2 6 1108 5 2458 l0 2454 -39 34 c-211 186 -553 399 -790 494
-144 57 -331 114 -425 130 -19 3 -44 8 -55 12 -11 3 -31 7 -45 8 -14 2 -45 6
-70 10 -25 4 -61 9 -80 11 -44 6 -467 14 -472 9z"/>
</g>
</svg>
